<svg width="80" height="20" viewBox="0 0 80 20" fill="none" xmlns="http://www.w3.org/2000/svg">
<path d="M38.28 4.816C39.2507 4.816 40.0133 4.92267 40.568 5.136C41.1227 5.33867 41.5173 5.696 41.752 6.208C41.9973 6.70933 42.12 7.424 42.12 8.352C42.12 9.28 42.0027 10 41.768 10.512C41.544 11.024 41.1653 11.3813 40.632 11.584C40.1093 11.7867 39.4107 11.888 38.536 11.888C38.056 11.888 37.592 11.872 37.144 11.84C36.7067 11.808 36.296 11.7653 35.912 11.712C35.5387 11.6587 35.2187 11.6053 34.952 11.552C34.6853 11.488 34.4987 11.4347 34.392 11.392L34.44 10.32C35.048 10.32 35.672 10.32 36.312 10.32C36.9627 10.32 37.608 10.32 38.248 10.32C38.7173 10.3093 39.0853 10.2507 39.352 10.144C39.6293 10.0373 39.8213 9.84533 39.928 9.568C40.0453 9.28 40.104 8.87467 40.104 8.352C40.104 7.82933 40.0453 7.42933 39.928 7.152C39.8213 6.864 39.6293 6.66667 39.352 6.56C39.0853 6.44267 38.7173 6.384 38.248 6.384C37.3093 6.384 36.504 6.38933 35.832 6.4C35.16 6.41067 34.7013 6.42667 34.456 6.448L34.232 4.96C34.6587 4.91733 35.0587 4.88533 35.432 4.864C35.816 4.84267 36.2267 4.832 36.664 4.832C37.112 4.82133 37.6507 4.816 38.28 4.816ZM36.232 4.96V16H34.232V4.96H36.232ZM48.9591 7.952C50.4205 7.952 51.1511 8.672 51.1511 10.112V16H49.1991V10.704C49.1991 10.2773 49.1245 9.984 48.9751 9.824C48.8365 9.664 48.5911 9.584 48.2391 9.584C47.8445 9.584 47.4391 9.66933 47.0231 9.84C46.6071 10.0107 46.1058 10.2667 45.5191 10.608L45.3751 9.488C45.9725 8.99733 46.5698 8.61867 47.1671 8.352C47.7751 8.08533 48.3725 7.952 48.9591 7.952ZM45.7271 4.8L45.7431 7.68C45.7431 8.07467 45.7218 8.448 45.6791 8.8C45.6471 9.14133 45.5991 9.43467 45.5351 9.68L45.7271 9.904V16H43.7911V4.8H45.7271ZM56.8275 7.952C57.7875 7.952 58.5502 8.08533 59.1155 8.352C59.6915 8.61867 60.1022 9.056 60.3475 9.664C60.6035 10.272 60.7315 11.0773 60.7315 12.08C60.7315 13.0827 60.6035 13.888 60.3475 14.496C60.1022 15.0933 59.6915 15.5307 59.1155 15.808C58.5502 16.0747 57.7875 16.208 56.8275 16.208C55.8888 16.208 55.1315 16.0747 54.5555 15.808C53.9902 15.5307 53.5795 15.0933 53.3235 14.496C53.0675 13.888 52.9395 13.0827 52.9395 12.08C52.9395 11.0773 53.0675 10.272 53.3235 9.664C53.5795 9.056 53.9902 8.61867 54.5555 8.352C55.1315 8.08533 55.8888 7.952 56.8275 7.952ZM56.8275 9.424C56.3582 9.424 55.9848 9.504 55.7075 9.664C55.4408 9.81333 55.2488 10.08 55.1315 10.464C55.0142 10.848 54.9555 11.3867 54.9555 12.08C54.9555 12.7733 55.0142 13.312 55.1315 13.696C55.2488 14.08 55.4408 14.3467 55.7075 14.496C55.9848 14.6453 56.3582 14.72 56.8275 14.72C57.3075 14.72 57.6862 14.6453 57.9635 14.496C58.2408 14.3467 58.4328 14.08 58.5395 13.696C58.6568 13.312 58.7155 12.7733 58.7155 12.08C58.7155 11.3867 58.6568 10.848 58.5395 10.464C58.4328 10.08 58.2408 9.81333 57.9635 9.664C57.6862 9.504 57.3075 9.424 56.8275 9.424ZM67.7248 7.952C69.1861 7.952 69.9167 8.672 69.9167 10.112V16H67.9808V10.704C67.9808 10.2773 67.9061 9.984 67.7568 9.824C67.6074 9.664 67.3568 9.584 67.0048 9.584C66.6101 9.584 66.2048 9.67467 65.7888 9.856C65.3728 10.0267 64.8714 10.2773 64.2848 10.608L64.2048 9.44C64.7808 8.96 65.3674 8.592 65.9648 8.336C66.5621 8.08 67.1488 7.952 67.7248 7.952ZM64.1408 8.144L64.3328 9.68L64.4928 9.904V16H62.5568V8.144H64.1408ZM75.5451 7.952C76.8145 7.952 77.7265 8.176 78.2811 8.624C78.8358 9.06133 79.1185 9.712 79.1291 10.576C79.1398 11.2907 78.9691 11.8347 78.6171 12.208C78.2758 12.5707 77.7051 12.752 76.9051 12.752H72.4251V11.552H76.3771C76.7398 11.552 76.9691 11.456 77.0651 11.264C77.1718 11.072 77.2251 10.8373 77.2251 10.56C77.2145 10.1227 77.0865 9.81867 76.8411 9.648C76.6065 9.47733 76.2011 9.392 75.6251 9.392C75.1238 9.392 74.7345 9.46133 74.4571 9.6C74.1798 9.73867 73.9825 9.98933 73.8651 10.352C73.7585 10.7147 73.7051 11.2373 73.7051 11.92C73.7051 12.6453 73.7745 13.2053 73.9131 13.6C74.0518 13.9947 74.2811 14.2667 74.6011 14.416C74.9211 14.5547 75.3478 14.624 75.8811 14.624C76.2758 14.624 76.7291 14.608 77.2411 14.576C77.7638 14.544 78.2651 14.5013 78.7451 14.448L78.9371 15.68C78.6491 15.7973 78.3185 15.8933 77.9451 15.968C77.5718 16.0427 77.1825 16.096 76.7771 16.128C76.3825 16.1707 76.0091 16.192 75.6571 16.192C74.6971 16.192 73.9238 16.0533 73.3371 15.776C72.7611 15.488 72.3398 15.04 72.0731 14.432C71.8171 13.824 71.6891 13.04 71.6891 12.08C71.6891 11.0453 71.8171 10.2293 72.0731 9.632C72.3398 9.024 72.7558 8.592 73.3211 8.336C73.8971 8.08 74.6385 7.952 75.5451 7.952Z" fill="white"/>
<path d="M9.472 4.96L6.448 9.456C6.34133 9.62667 6.22933 9.776 6.112 9.904C5.99467 10.0213 5.86667 10.1333 5.728 10.24V10.288C5.87733 10.3947 6.02667 10.5227 6.176 10.672C6.32533 10.8213 6.448 10.9813 6.544 11.152L9.68 16H7.44L3.808 10.224L7.296 4.96H9.472ZM3.232 4.96V8.224C3.232 8.56533 3.20533 8.90133 3.152 9.232C3.10933 9.56267 3.04 9.89333 2.944 10.224C3.01867 10.5333 3.08267 10.8533 3.136 11.184C3.2 11.504 3.232 11.8133 3.232 12.112V16H1.232V4.96H3.232ZM4.64 9.52V10.976H2.592V9.52H4.64ZM12.9314 8.144V16H11.0114V8.144H12.9314ZM12.4034 4.736C12.7874 4.736 12.9794 4.928 12.9794 5.312V6.208C12.9794 6.592 12.7874 6.784 12.4034 6.784H11.5394C11.1554 6.784 10.9634 6.592 10.9634 6.208V5.312C10.9634 4.928 11.1554 4.736 11.5394 4.736H12.4034ZM20.3341 7.952C21.7955 7.952 22.5261 8.672 22.5261 10.112V16H20.5901V10.704C20.5901 10.2773 20.5155 9.984 20.3661 9.824C20.2168 9.664 19.9661 9.584 19.6141 9.584C19.2195 9.584 18.8141 9.67467 18.3981 9.856C17.9821 10.0267 17.4808 10.2773 16.8941 10.608L16.8141 9.44C17.3901 8.96 17.9768 8.592 18.5741 8.336C19.1715 8.08 19.7581 7.952 20.3341 7.952ZM16.7501 8.144L16.9421 9.68L17.1021 9.904V16H15.1661V8.144H16.7501ZM27.9785 7.952C28.8638 7.952 29.5625 8.03733 30.0745 8.208C30.5972 8.368 30.9705 8.63467 31.1945 9.008C31.4185 9.37067 31.5305 9.85067 31.5305 10.448C31.5305 11.024 31.4185 11.4987 31.1945 11.872C30.9705 12.2347 30.5972 12.5013 30.0745 12.672C29.5518 12.8427 28.8478 12.928 27.9625 12.928C27.0772 12.928 26.3732 12.8427 25.8505 12.672C25.3385 12.5013 24.9652 12.2347 24.7305 11.872C24.5065 11.5093 24.3945 11.0347 24.3945 10.448C24.3945 9.85067 24.5065 9.37067 24.7305 9.008C24.9652 8.63467 25.3438 8.368 25.8665 8.208C26.3892 8.03733 27.0932 7.952 27.9785 7.952ZM27.9625 9.216C27.2905 9.216 26.8265 9.30667 26.5705 9.488C26.3145 9.66933 26.1865 9.98933 26.1865 10.448C26.1865 10.8853 26.3145 11.2 26.5705 11.392C26.8265 11.5733 27.2905 11.664 27.9625 11.664C28.6345 11.664 29.0932 11.5733 29.3385 11.392C29.5945 11.2 29.7225 10.8853 29.7225 10.448C29.7225 9.98933 29.5945 9.66933 29.3385 9.488C29.0932 9.30667 28.6345 9.216 27.9625 9.216ZM32.4425 8.144L32.3305 9.04L30.2825 9.264L29.7065 8.144H32.4425ZM25.6745 12.448L26.6665 12.592C26.5065 12.72 26.3945 12.8853 26.3305 13.088C26.2772 13.28 26.2932 13.4667 26.3785 13.648C26.4745 13.8187 26.6772 13.9253 26.9865 13.968L29.8985 14.352C30.6878 14.448 31.2425 14.6827 31.5625 15.056C31.8825 15.4187 32.0425 15.9467 32.0425 16.64C32.0425 17.2907 31.9145 17.7973 31.6585 18.16C31.4025 18.5227 30.9812 18.7733 30.3945 18.912C29.8185 19.0613 29.0398 19.136 28.0585 19.136C27.2798 19.136 26.6345 19.0933 26.1225 19.008C25.6105 18.9333 25.1998 18.8 24.8905 18.608C24.5918 18.4267 24.3785 18.1867 24.2505 17.888C24.1225 17.6 24.0585 17.2373 24.0585 16.8C24.0585 16.4587 24.1118 16.1707 24.2185 15.936C24.3358 15.7013 24.5225 15.4933 24.7785 15.312C25.0345 15.12 25.3812 14.944 25.8185 14.784L26.9065 14.32L27.6585 14.592L26.9545 15.088C26.7092 15.2693 26.5065 15.4347 26.3465 15.584C26.1972 15.7227 26.0852 15.8613 26.0105 16C25.9465 16.1493 25.9145 16.336 25.9145 16.56C25.9145 16.8587 25.9732 17.088 26.0905 17.248C26.2185 17.408 26.4372 17.5147 26.7465 17.568C27.0558 17.632 27.4878 17.664 28.0425 17.664C28.6078 17.664 29.0452 17.632 29.3545 17.568C29.6638 17.5147 29.8772 17.408 29.9945 17.248C30.1225 17.0987 30.1865 16.88 30.1865 16.592C30.1865 16.3573 30.1492 16.1813 30.0745 16.064C29.9998 15.9573 29.8665 15.872 29.6745 15.808C29.4825 15.744 29.2158 15.6907 28.8745 15.648L26.2505 15.328C25.8772 15.2853 25.5785 15.1787 25.3545 15.008C25.1412 14.8267 24.9918 14.6133 24.9065 14.368C24.8212 14.112 24.7945 13.8613 24.8265 13.616C24.8692 13.36 24.9598 13.1253 25.0985 12.912C25.2478 12.6987 25.4398 12.544 25.6745 12.448Z" fill="#F6CD46"/>
</svg>
