<svg width="66" height="13" viewBox="0 0 66 13" fill="none" xmlns="http://www.w3.org/2000/svg">
<path d="M33.788 6.2C33.788 6.79733 33.5053 7.29333 32.94 7.688L29.948 9.752V12.968H27.9V1.544H31.724C33.1 1.544 33.788 2.056 33.788 3.08V6.2ZM31.9 5.128C31.9 4.62667 31.9 4.312 31.9 4.184C31.8893 3.72533 31.6973 3.496 31.324 3.496H29.852V7.368C30.3533 7.10133 30.748 6.86133 31.036 6.648C31.6013 6.24267 31.8893 5.90667 31.9 5.64C31.9 5.56533 31.9 5.39467 31.9 5.128ZM42.0755 12.968H40.0755V8.12H36.9235V12.968H34.9075V1.608H36.9235V6.136H40.0755V1.608H42.0755V12.968ZM49.8365 11.48C49.8365 11.7573 49.7458 12.0347 49.5645 12.312C49.2765 12.7387 48.8498 12.952 48.2845 12.952H45.2445C44.7965 12.952 44.3912 12.8027 44.0285 12.504C43.6338 12.1733 43.4365 11.7947 43.4365 11.368V3.032C43.4365 2.616 43.6018 2.264 43.9325 1.976C44.2738 1.67733 44.6525 1.528 45.0685 1.528H48.1885C48.5725 1.528 48.9352 1.65067 49.2765 1.896C49.6498 2.17333 49.8365 2.49867 49.8365 2.872V11.48ZM47.7725 10.696V4.072C47.7725 3.79467 47.6338 3.656 47.3565 3.656H45.9645C45.6872 3.656 45.5485 3.79467 45.5485 4.072V10.696C45.5485 10.8027 45.6072 10.8987 45.7245 10.984C45.8418 11.0587 45.9592 11.096 46.0765 11.096H47.4685C47.6712 11.096 47.7725 10.9627 47.7725 10.696ZM57.8615 12.968H55.8615L53.1415 6.696V12.968H51.1575V1.56H53.4615L55.8775 7.864V1.56H57.8615V12.968ZM65.0418 13H58.9938V1.592H65.0418V3.848H61.0578V6.136H64.0498V8.12H61.0578V11.016H65.0418V13Z" fill="white"/>
<path d="M7.248 12.968H5.232L3.888 8.808L2.528 9.752V12.968H0.48V1.56H2.416V7.368C3.77067 6.632 4.448 6.056 4.448 5.64V1.56H6.368V6.2C6.368 6.76533 6.08533 7.26133 5.52 7.688L7.248 12.968ZM10.4544 12.968H8.45438V1.608H10.4544V12.968ZM18.6115 12.968H16.6115L13.8915 6.696V12.968H11.9075V1.56H14.2115L16.6275 7.864V1.56H18.6115V12.968ZM26.1918 11.48C26.1918 11.7573 26.1011 12.0347 25.9198 12.312C25.6424 12.7387 25.2158 12.952 24.6398 12.952H21.5998C21.1624 12.952 20.7518 12.7973 20.3678 12.488C19.9838 12.168 19.7918 11.7947 19.7918 11.368V3.032C19.7918 2.616 19.9571 2.264 20.2878 1.976C20.6291 1.67733 21.0078 1.528 21.4238 1.528H24.5438C24.9384 1.528 25.3118 1.656 25.6638 1.912C26.0158 2.168 26.1918 2.488 26.1918 2.872V4.328H24.1278C24.1278 4.08267 24.1171 3.928 24.0958 3.864C24.0424 3.72533 23.9144 3.656 23.7118 3.656H22.3198C22.0424 3.656 21.9038 3.79467 21.9038 4.072V10.696C21.9038 10.8027 21.9624 10.8987 22.0798 10.984C22.2078 11.0587 22.3251 11.096 22.4318 11.096H23.8238C24.0264 11.096 24.1278 10.9627 24.1278 10.696V8.76H23.1678V7.224H26.1918V11.48Z" fill="#F6CD46"/>
</svg>
